<svg xmlns="http://www.w3.org/2000/svg" xmlns:xlink="http://www.w3.org/1999/xlink" width="1200" height="3083" viewBox="0 0 1200 3083">
  <defs>
    <clipPath id="clip-about.html_desktop">
      <rect width="1200" height="3083"/>
    </clipPath>
  </defs>
  <g id="about.html_desktop" data-name="about.html desktop" clip-path="url(#clip-about.html_desktop)">
    <rect width="1200" height="3083" fill="#fff"/>
    <rect id="Rectangle_51" data-name="Rectangle 51" width="160" height="45" transform="translate(120 2202)" fill="#c1c1c1"/>
    <rect id="Rectangle_58" data-name="Rectangle 58" width="160" height="45" transform="translate(120 2486)" fill="#c1c1c1"/>
    <rect id="Rectangle_63" data-name="Rectangle 63" width="160" height="45" transform="translate(120 2691)" fill="#c1c1c1"/>
    <rect id="Rectangle_52" data-name="Rectangle 52" width="160" height="45" transform="translate(320 2202)" fill="#c1c1c1"/>
    <rect id="Rectangle_59" data-name="Rectangle 59" width="160" height="45" transform="translate(320 2486)" fill="#c1c1c1"/>
    <rect id="Rectangle_64" data-name="Rectangle 64" width="160" height="45" transform="translate(320 2691)" fill="#c1c1c1"/>
    <rect id="Rectangle_53" data-name="Rectangle 53" width="160" height="45" transform="translate(520 2202)" fill="#c1c1c1"/>
    <rect id="Rectangle_60" data-name="Rectangle 60" width="160" height="45" transform="translate(520 2486)" fill="#c1c1c1"/>
    <rect id="Rectangle_65" data-name="Rectangle 65" width="160" height="45" transform="translate(520 2691)" fill="#c1c1c1"/>
    <rect id="Rectangle_54" data-name="Rectangle 54" width="160" height="45" transform="translate(720 2202)" fill="#c1c1c1"/>
    <rect id="Rectangle_61" data-name="Rectangle 61" width="160" height="45" transform="translate(720 2486)" fill="#c1c1c1"/>
    <rect id="Rectangle_66" data-name="Rectangle 66" width="160" height="45" transform="translate(720 2691)" fill="#c1c1c1"/>
    <rect id="Rectangle_55" data-name="Rectangle 55" width="160" height="45" transform="translate(920 2202)" fill="#c1c1c1"/>
    <rect id="Rectangle_62" data-name="Rectangle 62" width="160" height="45" transform="translate(920 2486)" fill="#c1c1c1"/>
    <rect id="Rectangle_67" data-name="Rectangle 67" width="160" height="45" transform="translate(920 2691)" fill="#c1c1c1"/>
    <rect id="Rectangle_40" data-name="Rectangle 40" width="260" height="173" transform="translate(120 1430)" fill="#c1c1c1"/>
    <rect id="Rectangle_46" data-name="Rectangle 46" width="260" height="173" transform="translate(220 1685)" fill="#c1c1c1"/>
    <rect id="Rectangle_42" data-name="Rectangle 42" width="260" height="173" transform="translate(470 1430)" fill="#c1c1c1"/>
    <rect id="Rectangle_48" data-name="Rectangle 48" width="260" height="173" transform="translate(720 1685)" fill="#c1c1c1"/>
    <rect id="Rectangle_44" data-name="Rectangle 44" width="260" height="173" transform="translate(820 1430)" fill="#c1c1c1"/>
    <rect id="Rectangle_8" data-name="Rectangle 8" width="1200" height="339" fill="#9f9f9f"/>
    <rect id="Rectangle_1" data-name="Rectangle 1" width="1200" height="150" fill="#717171"/>
    <ellipse id="Ellipse_1" data-name="Ellipse 1" cx="83.5" cy="84.5" rx="83.5" ry="84.5" transform="translate(214.5 40)" fill="#717171"/>
    <ellipse id="Ellipse_2" data-name="Ellipse 2" cx="68" cy="80" rx="68" ry="80" transform="translate(230 28)" fill="#9f9f9f"/>
    <rect id="Rectangle_3" data-name="Rectangle 3" width="760" height="65" transform="translate(420 60)" fill="#c1c1c1"/>
    <rect id="Rectangle_4" data-name="Rectangle 4" width="40" height="40" transform="translate(1140 7)" fill="#c1c1c1"/>
    <rect id="Rectangle_5" data-name="Rectangle 5" width="40" height="40" transform="translate(1040 7)" fill="#c1c1c1"/>
    <rect id="Rectangle_6" data-name="Rectangle 6" width="40" height="40" transform="translate(940 7)" fill="#c1c1c1"/>
    <rect id="Rectangle_7" data-name="Rectangle 7" width="160" height="40" transform="translate(20 15)" fill="#c1c1c1"/>
    <rect id="Rectangle_10" data-name="Rectangle 10" width="360" height="75" transform="translate(420 225)" fill="#c1c1c1"/>
    <text id="LOGO" transform="translate(255 93)" fill="#fff" font-size="24" font-family="HelveticaNeue, Helvetica Neue"><tspan x="6.48" y="23">LOGO</tspan></text>
    <text id="Image" transform="translate(559.5 177)" fill="#fff" font-size="24" font-family="HelveticaNeue, Helvetica Neue"><tspan x="7.38" y="23">Image</tspan></text>
    <text id="Search" transform="translate(60 23)" fill="#fff" font-size="24" font-family="HelveticaNeue, Helvetica Neue"><tspan x="2.94" y="23">Search</tspan></text>
    <text id="NAV" transform="translate(760 77)" fill="#fff" font-size="24" font-family="HelveticaNeue, Helvetica Neue"><tspan x="17.28" y="23">NAV</tspan></text>
    <text id="ICON" transform="translate(920 18)" fill="#fff" font-size="14" font-family="HelveticaNeue, Helvetica Neue"><tspan x="23.259" y="13">ICON</tspan></text>
    <text id="ICON-2" data-name="ICON" transform="translate(1020 20)" fill="#fff" font-size="14" font-family="HelveticaNeue, Helvetica Neue"><tspan x="23.259" y="13">ICON</tspan></text>
    <text id="ICON-3" data-name="ICON" transform="translate(1120 20)" fill="#fff" font-size="14" font-family="HelveticaNeue, Helvetica Neue"><tspan x="23.259" y="13">ICON</tspan></text>
    <text id="PAGE_INTO_HEADING" data-name="PAGE INTO HEADING" transform="translate(436 249)" fill="#fff" font-size="24" font-family="HelveticaNeue, Helvetica Neue"><tspan x="45.344" y="23">PAGE INTO HEADING</tspan></text>
    <rect id="Rectangle_35" data-name="Rectangle 35" width="660" height="59.283" transform="translate(120 387)" fill="#c1c1c1"/>
    <rect id="Rectangle_37" data-name="Rectangle 37" width="560" height="59.283" transform="translate(320 762)" fill="#c1c1c1"/>
    <rect id="Rectangle_36" data-name="Rectangle 36" width="960" height="224.967" transform="translate(120 468)" fill="#c1c1c1"/>
    <rect id="Rectangle_11" data-name="Rectangle 11" width="360" height="173.169" transform="translate(120 870)" fill="#9f9f9f"/>
    <rect id="Rectangle_39" data-name="Rectangle 39" width="360" height="173.169" transform="translate(720 1069)" fill="#9f9f9f"/>
    <rect id="Rectangle_41" data-name="Rectangle 41" width="260" height="86.169" transform="translate(120 1430)" fill="#9f9f9f"/>
    <rect id="Rectangle_47" data-name="Rectangle 47" width="260" height="86.169" transform="translate(220 1685)" fill="#9f9f9f"/>
    <rect id="Rectangle_43" data-name="Rectangle 43" width="260" height="86.169" transform="translate(470 1430)" fill="#9f9f9f"/>
    <rect id="Rectangle_49" data-name="Rectangle 49" width="260" height="86.169" transform="translate(720 1685)" fill="#9f9f9f"/>
    <rect id="Rectangle_45" data-name="Rectangle 45" width="260" height="86.169" transform="translate(820 1430)" fill="#9f9f9f"/>
    <rect id="Rectangle_12" data-name="Rectangle 12" width="460" height="173" transform="translate(620 870)" fill="#c1c1c1"/>
    <rect id="Rectangle_38" data-name="Rectangle 38" width="460" height="173" transform="translate(120 1075)" fill="#c1c1c1"/>
    <rect id="Rectangle_18" data-name="Rectangle 18" width="560" height="60" transform="translate(320 1298)" fill="#c1c1c1"/>
    <rect id="Rectangle_50" data-name="Rectangle 50" width="560" height="60" transform="translate(320 1914)" fill="#c1c1c1"/>
    <rect id="Rectangle_56" data-name="Rectangle 56" width="360" height="40.687" transform="translate(420 2003.313)" fill="#c1c1c1"/>
    <rect id="Rectangle_57" data-name="Rectangle 57" width="360" height="40.687" transform="translate(420 2285.313)" fill="#c1c1c1"/>
    <rect id="Rectangle_29" data-name="Rectangle 29" width="1200" height="300" transform="translate(0 2786)" fill="#717171"/>
    <g id="Rectangle_30" data-name="Rectangle 30" transform="translate(120 2814)" fill="#c1c1c1" stroke="#707070" stroke-width="1">
      <rect width="960" height="64" stroke="none"/>
      <rect x="0.5" y="0.5" width="959" height="63" fill="none"/>
    </g>
    <g id="Rectangle_34" data-name="Rectangle 34" transform="translate(220 2988)" fill="#c1c1c1" stroke="#707070" stroke-width="1">
      <rect width="760" height="40" stroke="none"/>
      <rect x="0.5" y="0.5" width="759" height="39" fill="none"/>
    </g>
    <g id="Rectangle_31" data-name="Rectangle 31" transform="translate(480 2905)" fill="#9f9f9f" stroke="#707070" stroke-width="1">
      <rect width="40" height="40" stroke="none"/>
      <rect x="0.5" y="0.5" width="39" height="39" fill="none"/>
    </g>
    <g id="Rectangle_32" data-name="Rectangle 32" transform="translate(580 2905)" fill="#9f9f9f" stroke="#707070" stroke-width="1">
      <rect width="40" height="40" stroke="none"/>
      <rect x="0.5" y="0.5" width="39" height="39" fill="none"/>
    </g>
    <g id="Rectangle_33" data-name="Rectangle 33" transform="translate(680 2905)" fill="#9f9f9f" stroke="#707070" stroke-width="1">
      <rect width="40" height="40" stroke="none"/>
      <rect x="0.5" y="0.5" width="39" height="39" fill="none"/>
    </g>
    <text id="TITLE" transform="translate(136 395.283)" fill="#fff" font-size="24" font-family="HelveticaNeue, Helvetica Neue"><tspan x="283.112" y="23">TITLE</tspan></text>
    <text id="TITLE-2" data-name="TITLE" transform="translate(336 770.283)" fill="#fff" font-size="24" font-family="HelveticaNeue, Helvetica Neue"><tspan x="233.112" y="23">TITLE</tspan></text>
    <text id="COPY_TEXT" data-name="COPY TEXT" transform="translate(423.5 565.283)" fill="#fff" font-size="24" font-family="HelveticaNeue, Helvetica Neue"><tspan x="111.388" y="23">COPY TEXT</tspan></text>
    <text id="COPY_TEXT-2" data-name="COPY TEXT" transform="translate(680 942.283)" fill="#fff" font-size="24" font-family="HelveticaNeue, Helvetica Neue"><tspan x="111.388" y="23">COPY TEXT</tspan></text>
    <text id="COPY_TEXT-3" data-name="COPY TEXT" transform="translate(180 1147.283)" fill="#fff" font-size="24" font-family="HelveticaNeue, Helvetica Neue"><tspan x="111.388" y="23">COPY TEXT</tspan></text>
    <text id="Footer_Nav" data-name="Footer Nav" transform="translate(436 2830)" fill="#fff" font-size="24" font-family="HelveticaNeue, Helvetica Neue"><tspan x="104.672" y="23">Footer Nav</tspan></text>
    <text id="COPYRIGHT" transform="translate(436 2993)" fill="#fff" font-size="24" font-family="HelveticaNeue, Helvetica Neue"><tspan x="94.676" y="23">COPYRIGHT</tspan></text>
    <text id="PARTNERS" transform="translate(436 1309)" fill="#fff" font-size="24" font-family="HelveticaNeue, Helvetica Neue"><tspan x="102.452" y="23">PARTNERS</tspan></text>
    <text id="TRAA_Positions" data-name="TRAA Positions" transform="translate(436 1925)" fill="#fff" font-size="24" font-family="HelveticaNeue, Helvetica Neue"><tspan x="80.672" y="23">TRAA Positions</tspan></text>
    <text id="Executives_" data-name="Executives
" transform="translate(494.571 2010.772)" fill="#fff" font-size="24" font-family="HelveticaNeue, Helvetica Neue"><tspan x="47.433" y="23">Executives</tspan></text>
    <text id="Volunteers" transform="translate(494.571 2292.772)" fill="#fff" font-size="24" font-family="HelveticaNeue, Helvetica Neue"><tspan x="49.197" y="23">Volunteers</tspan></text>
    <text id="Image-2" data-name="Image" transform="translate(246.545 937.11)" fill="#fff" font-size="24" font-family="HelveticaNeue, Helvetica Neue"><tspan x="30.88" y="23">Image</tspan></text>
    <text id="Image-3" data-name="Image" transform="translate(846.545 1136.11)" fill="#fff" font-size="24" font-family="HelveticaNeue, Helvetica Neue"><tspan x="30.88" y="23">Image</tspan></text>
    <text id="LOGO-2" data-name="LOGO" transform="translate(192 1455.668)" fill="#fff" font-size="24" font-family="HelveticaNeue, Helvetica Neue"><tspan x="29.98" y="23">LOGO</tspan></text>
    <text id="LOGO-3" data-name="LOGO" transform="translate(292 1710.668)" fill="#fff" font-size="24" font-family="HelveticaNeue, Helvetica Neue"><tspan x="29.98" y="23">LOGO</tspan></text>
    <text id="LOGO-4" data-name="LOGO" transform="translate(542 1455.668)" fill="#fff" font-size="24" font-family="HelveticaNeue, Helvetica Neue"><tspan x="29.98" y="23">LOGO</tspan></text>
    <text id="LOGO-5" data-name="LOGO" transform="translate(792 1710.668)" fill="#fff" font-size="24" font-family="HelveticaNeue, Helvetica Neue"><tspan x="29.98" y="23">LOGO</tspan></text>
    <text id="LOGO-6" data-name="LOGO" transform="translate(892 1455.668)" fill="#fff" font-size="24" font-family="HelveticaNeue, Helvetica Neue"><tspan x="29.98" y="23">LOGO</tspan></text>
    <text id="LEARN_MORE" data-name="LEARN MORE" transform="translate(161 1546.668)" fill="#fff" font-size="24" font-family="HelveticaNeue, Helvetica Neue"><tspan x="18.376" y="23">LEARN MORE</tspan></text>
    <text id="LEARN_MORE-2" data-name="LEARN MORE" transform="translate(261 1801.668)" fill="#fff" font-size="24" font-family="HelveticaNeue, Helvetica Neue"><tspan x="18.376" y="23">LEARN MORE</tspan></text>
    <text id="LEARN_MORE-3" data-name="LEARN MORE" transform="translate(511 1546.668)" fill="#fff" font-size="24" font-family="HelveticaNeue, Helvetica Neue"><tspan x="18.376" y="23">LEARN MORE</tspan></text>
    <text id="LEARN_MORE-4" data-name="LEARN MORE" transform="translate(761 1801.668)" fill="#fff" font-size="24" font-family="HelveticaNeue, Helvetica Neue"><tspan x="18.376" y="23">LEARN MORE</tspan></text>
    <text id="LEARN_MORE-5" data-name="LEARN MORE" transform="translate(861 1546.668)" fill="#fff" font-size="24" font-family="HelveticaNeue, Helvetica Neue"><tspan x="18.376" y="23">LEARN MORE</tspan></text>
    <text id="ICON-4" data-name="ICON" transform="translate(559.5 2920)" fill="#fff" font-size="14" font-family="HelveticaNeue, Helvetica Neue"><tspan x="23.259" y="13">ICON</tspan></text>
    <text id="ICON-5" data-name="ICON" transform="translate(459.5 2920)" fill="#fff" font-size="14" font-family="HelveticaNeue, Helvetica Neue"><tspan x="23.259" y="13">ICON</tspan></text>
    <text id="ICON-6" data-name="ICON" transform="translate(659.5 2920)" fill="#fff" font-size="14" font-family="HelveticaNeue, Helvetica Neue"><tspan x="23.259" y="13">ICON</tspan></text>
    <circle id="Ellipse_3" data-name="Ellipse 3" cx="59.5" cy="59.5" r="59.5" transform="translate(141 2062)" fill="#9f9f9f"/>
    <circle id="Ellipse_8" data-name="Ellipse 8" cx="59.5" cy="59.5" r="59.5" transform="translate(141 2346)" fill="#9f9f9f"/>
    <circle id="Ellipse_13" data-name="Ellipse 13" cx="59.5" cy="59.5" r="59.5" transform="translate(141 2551)" fill="#9f9f9f"/>
    <circle id="Ellipse_4" data-name="Ellipse 4" cx="59.5" cy="59.5" r="59.5" transform="translate(341 2062)" fill="#9f9f9f"/>
    <circle id="Ellipse_9" data-name="Ellipse 9" cx="59.5" cy="59.5" r="59.5" transform="translate(341 2346)" fill="#9f9f9f"/>
    <circle id="Ellipse_14" data-name="Ellipse 14" cx="59.5" cy="59.5" r="59.5" transform="translate(341 2551)" fill="#9f9f9f"/>
    <circle id="Ellipse_5" data-name="Ellipse 5" cx="59.5" cy="59.5" r="59.5" transform="translate(541 2062)" fill="#9f9f9f"/>
    <circle id="Ellipse_10" data-name="Ellipse 10" cx="59.5" cy="59.5" r="59.5" transform="translate(541 2346)" fill="#9f9f9f"/>
    <circle id="Ellipse_15" data-name="Ellipse 15" cx="59.5" cy="59.5" r="59.5" transform="translate(541 2551)" fill="#9f9f9f"/>
    <circle id="Ellipse_6" data-name="Ellipse 6" cx="59.5" cy="59.5" r="59.5" transform="translate(741 2062)" fill="#9f9f9f"/>
    <circle id="Ellipse_11" data-name="Ellipse 11" cx="59.5" cy="59.5" r="59.5" transform="translate(741 2346)" fill="#9f9f9f"/>
    <circle id="Ellipse_16" data-name="Ellipse 16" cx="59.5" cy="59.5" r="59.5" transform="translate(741 2551)" fill="#9f9f9f"/>
    <circle id="Ellipse_7" data-name="Ellipse 7" cx="59.5" cy="59.5" r="59.5" transform="translate(941 2062)" fill="#9f9f9f"/>
    <circle id="Ellipse_12" data-name="Ellipse 12" cx="59.5" cy="59.5" r="59.5" transform="translate(941 2346)" fill="#9f9f9f"/>
    <circle id="Ellipse_17" data-name="Ellipse 17" cx="59.5" cy="59.5" r="59.5" transform="translate(941 2551)" fill="#9f9f9f"/>
    <text id="Headshot" transform="translate(154 2111)" fill="#fff" font-size="18" font-family="HelveticaNeue, Helvetica Neue"><tspan x="7.494" y="17">Headshot</tspan></text>
    <text id="Headshot-2" data-name="Headshot" transform="translate(154 2395)" fill="#fff" font-size="18" font-family="HelveticaNeue, Helvetica Neue"><tspan x="7.494" y="17">Headshot</tspan></text>
    <text id="Headshot-3" data-name="Headshot" transform="translate(154 2600)" fill="#fff" font-size="18" font-family="HelveticaNeue, Helvetica Neue"><tspan x="7.494" y="17">Headshot</tspan></text>
    <text id="Headshot-4" data-name="Headshot" transform="translate(354 2111)" fill="#fff" font-size="18" font-family="HelveticaNeue, Helvetica Neue"><tspan x="7.494" y="17">Headshot</tspan></text>
    <text id="Headshot-5" data-name="Headshot" transform="translate(354 2395)" fill="#fff" font-size="18" font-family="HelveticaNeue, Helvetica Neue"><tspan x="7.494" y="17">Headshot</tspan></text>
    <text id="Headshot-6" data-name="Headshot" transform="translate(354 2600)" fill="#fff" font-size="18" font-family="HelveticaNeue, Helvetica Neue"><tspan x="7.494" y="17">Headshot</tspan></text>
    <text id="Headshot-7" data-name="Headshot" transform="translate(554 2111)" fill="#fff" font-size="18" font-family="HelveticaNeue, Helvetica Neue"><tspan x="7.494" y="17">Headshot</tspan></text>
    <text id="Headshot-8" data-name="Headshot" transform="translate(554 2395)" fill="#fff" font-size="18" font-family="HelveticaNeue, Helvetica Neue"><tspan x="7.494" y="17">Headshot</tspan></text>
    <text id="Headshot-9" data-name="Headshot" transform="translate(554 2600)" fill="#fff" font-size="18" font-family="HelveticaNeue, Helvetica Neue"><tspan x="7.494" y="17">Headshot</tspan></text>
    <text id="Headshot-10" data-name="Headshot" transform="translate(754 2111)" fill="#fff" font-size="18" font-family="HelveticaNeue, Helvetica Neue"><tspan x="7.494" y="17">Headshot</tspan></text>
    <text id="Headshot-11" data-name="Headshot" transform="translate(754 2395)" fill="#fff" font-size="18" font-family="HelveticaNeue, Helvetica Neue"><tspan x="7.494" y="17">Headshot</tspan></text>
    <text id="Headshot-12" data-name="Headshot" transform="translate(754 2600)" fill="#fff" font-size="18" font-family="HelveticaNeue, Helvetica Neue"><tspan x="7.494" y="17">Headshot</tspan></text>
    <text id="Headshot-13" data-name="Headshot" transform="translate(954 2111)" fill="#fff" font-size="18" font-family="HelveticaNeue, Helvetica Neue"><tspan x="7.494" y="17">Headshot</tspan></text>
    <text id="Headshot-14" data-name="Headshot" transform="translate(954 2395)" fill="#fff" font-size="18" font-family="HelveticaNeue, Helvetica Neue"><tspan x="7.494" y="17">Headshot</tspan></text>
    <text id="Headshot-15" data-name="Headshot" transform="translate(954 2600)" fill="#fff" font-size="18" font-family="HelveticaNeue, Helvetica Neue"><tspan x="7.494" y="17">Headshot</tspan></text>
    <text id="NAME_JOB" data-name="NAME &amp; JOB" transform="translate(120 2211)" fill="#fff" font-size="18" font-family="HelveticaNeue, Helvetica Neue"><tspan x="25.982" y="17">NAME &amp; JOB</tspan></text>
    <text id="NAME_JOB-2" data-name="NAME &amp; JOB" transform="translate(120 2495)" fill="#fff" font-size="18" font-family="HelveticaNeue, Helvetica Neue"><tspan x="25.982" y="17">NAME &amp; JOB</tspan></text>
    <text id="NAME_JOB-3" data-name="NAME &amp; JOB" transform="translate(120 2698)" fill="#fff" font-size="18" font-family="HelveticaNeue, Helvetica Neue"><tspan x="25.982" y="17">NAME &amp; JOB</tspan></text>
    <text id="NAME_JOB-4" data-name="NAME &amp; JOB" transform="translate(320 2211)" fill="#fff" font-size="18" font-family="HelveticaNeue, Helvetica Neue"><tspan x="25.982" y="17">NAME &amp; JOB</tspan></text>
    <text id="NAME_JOB-5" data-name="NAME &amp; JOB" transform="translate(320 2495)" fill="#fff" font-size="18" font-family="HelveticaNeue, Helvetica Neue"><tspan x="25.982" y="17">NAME &amp; JOB</tspan></text>
    <text id="NAME_JOB-6" data-name="NAME &amp; JOB" transform="translate(320 2698)" fill="#fff" font-size="18" font-family="HelveticaNeue, Helvetica Neue"><tspan x="25.982" y="17">NAME &amp; JOB</tspan></text>
    <text id="NAME_JOB-7" data-name="NAME &amp; JOB" transform="translate(520 2211)" fill="#fff" font-size="18" font-family="HelveticaNeue, Helvetica Neue"><tspan x="25.982" y="17">NAME &amp; JOB</tspan></text>
    <text id="NAME_JOB-8" data-name="NAME &amp; JOB" transform="translate(520 2495)" fill="#fff" font-size="18" font-family="HelveticaNeue, Helvetica Neue"><tspan x="25.982" y="17">NAME &amp; JOB</tspan></text>
    <text id="NAME_JOB-9" data-name="NAME &amp; JOB" transform="translate(520 2698)" fill="#fff" font-size="18" font-family="HelveticaNeue, Helvetica Neue"><tspan x="25.982" y="17">NAME &amp; JOB</tspan></text>
    <text id="NAME_JOB-10" data-name="NAME &amp; JOB" transform="translate(720 2214)" fill="#fff" font-size="18" font-family="HelveticaNeue, Helvetica Neue"><tspan x="25.982" y="17">NAME &amp; JOB</tspan></text>
    <text id="NAME_JOB-11" data-name="NAME &amp; JOB" transform="translate(720 2498)" fill="#fff" font-size="18" font-family="HelveticaNeue, Helvetica Neue"><tspan x="25.982" y="17">NAME &amp; JOB</tspan></text>
    <text id="NAME_JOB-12" data-name="NAME &amp; JOB" transform="translate(720 2701)" fill="#fff" font-size="18" font-family="HelveticaNeue, Helvetica Neue"><tspan x="25.982" y="17">NAME &amp; JOB</tspan></text>
    <text id="NAME_JOB-13" data-name="NAME &amp; JOB" transform="translate(920 2211)" fill="#fff" font-size="18" font-family="HelveticaNeue, Helvetica Neue"><tspan x="25.982" y="17">NAME &amp; JOB</tspan></text>
    <text id="NAME_JOB-14" data-name="NAME &amp; JOB" transform="translate(920 2495)" fill="#fff" font-size="18" font-family="HelveticaNeue, Helvetica Neue"><tspan x="25.982" y="17">NAME &amp; JOB</tspan></text>
    <text id="NAME_JOB-15" data-name="NAME &amp; JOB" transform="translate(920 2698)" fill="#fff" font-size="18" font-family="HelveticaNeue, Helvetica Neue"><tspan x="25.982" y="17">NAME &amp; JOB</tspan></text>
  </g>
</svg>
