<svg xmlns="http://www.w3.org/2000/svg" xmlns:xlink="http://www.w3.org/1999/xlink" width="1200" height="2077" viewBox="0 0 1200 2077">
  <defs>
    <clipPath id="clip-contact.html_desktop">
      <rect width="1200" height="2077"/>
    </clipPath>
  </defs>
  <g id="contact.html_desktop" data-name="contact.html desktop" clip-path="url(#clip-contact.html_desktop)">
    <rect width="1200" height="2077" fill="#fff"/>
    <rect id="Rectangle_8" data-name="Rectangle 8" width="1200" height="339" fill="#9f9f9f"/>
    <rect id="Rectangle_1" data-name="Rectangle 1" width="1200" height="150" fill="#717171"/>
    <ellipse id="Ellipse_1" data-name="Ellipse 1" cx="83.5" cy="84.5" rx="83.5" ry="84.5" transform="translate(214.5 40)" fill="#717171"/>
    <ellipse id="Ellipse_2" data-name="Ellipse 2" cx="68" cy="80" rx="68" ry="80" transform="translate(230 28)" fill="#9f9f9f"/>
    <rect id="Rectangle_3" data-name="Rectangle 3" width="760" height="65" transform="translate(420 60)" fill="#c1c1c1"/>
    <rect id="Rectangle_4" data-name="Rectangle 4" width="40" height="40" transform="translate(1140 7)" fill="#c1c1c1"/>
    <rect id="Rectangle_5" data-name="Rectangle 5" width="40" height="40" transform="translate(1040 7)" fill="#c1c1c1"/>
    <rect id="Rectangle_6" data-name="Rectangle 6" width="40" height="40" transform="translate(940 7)" fill="#c1c1c1"/>
    <rect id="Rectangle_7" data-name="Rectangle 7" width="160" height="40" transform="translate(20 15)" fill="#c1c1c1"/>
    <text id="LOGO" transform="translate(255 93)" fill="#fff" font-size="24" font-family="HelveticaNeue, Helvetica Neue"><tspan x="6.48" y="23">LOGO</tspan></text>
    <text id="Image" transform="translate(559.5 177)" fill="#fff" font-size="24" font-family="HelveticaNeue, Helvetica Neue"><tspan x="7.38" y="23">Image</tspan></text>
    <text id="Search" transform="translate(60 23)" fill="#fff" font-size="24" font-family="HelveticaNeue, Helvetica Neue"><tspan x="2.94" y="23">Search</tspan></text>
    <text id="NAV" transform="translate(760 77)" fill="#fff" font-size="24" font-family="HelveticaNeue, Helvetica Neue"><tspan x="17.28" y="23">NAV</tspan></text>
    <text id="ICON" transform="translate(920 18)" fill="#fff" font-size="14" font-family="HelveticaNeue, Helvetica Neue"><tspan x="23.259" y="13">ICON</tspan></text>
    <text id="ICON-2" data-name="ICON" transform="translate(1020 20)" fill="#fff" font-size="14" font-family="HelveticaNeue, Helvetica Neue"><tspan x="23.259" y="13">ICON</tspan></text>
    <text id="ICON-3" data-name="ICON" transform="translate(1120 20)" fill="#fff" font-size="14" font-family="HelveticaNeue, Helvetica Neue"><tspan x="23.259" y="13">ICON</tspan></text>
    <rect id="Rectangle_29" data-name="Rectangle 29" width="1200" height="300" transform="translate(0 1776)" fill="#717171"/>
    <g id="Rectangle_30" data-name="Rectangle 30" transform="translate(120 1804)" fill="#c1c1c1" stroke="#707070" stroke-width="1">
      <rect width="960" height="64" stroke="none"/>
      <rect x="0.5" y="0.5" width="959" height="63" fill="none"/>
    </g>
    <g id="Rectangle_34" data-name="Rectangle 34" transform="translate(220 1978)" fill="#c1c1c1" stroke="#707070" stroke-width="1">
      <rect width="760" height="40" stroke="none"/>
      <rect x="0.5" y="0.5" width="759" height="39" fill="none"/>
    </g>
    <g id="Rectangle_31" data-name="Rectangle 31" transform="translate(480 1895)" fill="#9f9f9f" stroke="#707070" stroke-width="1">
      <rect width="40" height="40" stroke="none"/>
      <rect x="0.5" y="0.5" width="39" height="39" fill="none"/>
    </g>
    <g id="Rectangle_32" data-name="Rectangle 32" transform="translate(580 1895)" fill="#9f9f9f" stroke="#707070" stroke-width="1">
      <rect width="40" height="40" stroke="none"/>
      <rect x="0.5" y="0.5" width="39" height="39" fill="none"/>
    </g>
    <g id="Rectangle_33" data-name="Rectangle 33" transform="translate(680 1895)" fill="#9f9f9f" stroke="#707070" stroke-width="1">
      <rect width="40" height="40" stroke="none"/>
      <rect x="0.5" y="0.5" width="39" height="39" fill="none"/>
    </g>
    <text id="Footer_Nav" data-name="Footer Nav" transform="translate(436 1820)" fill="#fff" font-size="24" font-family="HelveticaNeue, Helvetica Neue"><tspan x="104.672" y="23">Footer Nav</tspan></text>
    <text id="COPYRIGHT" transform="translate(436 1983)" fill="#fff" font-size="24" font-family="HelveticaNeue, Helvetica Neue"><tspan x="94.676" y="23">COPYRIGHT</tspan></text>
    <text id="ICON-4" data-name="ICON" transform="translate(559.5 1910)" fill="#fff" font-size="14" font-family="HelveticaNeue, Helvetica Neue"><tspan x="23.259" y="13">ICON</tspan></text>
    <text id="ICON-5" data-name="ICON" transform="translate(459.5 1910)" fill="#fff" font-size="14" font-family="HelveticaNeue, Helvetica Neue"><tspan x="23.259" y="13">ICON</tspan></text>
    <text id="ICON-6" data-name="ICON" transform="translate(659.5 1910)" fill="#fff" font-size="14" font-family="HelveticaNeue, Helvetica Neue"><tspan x="23.259" y="13">ICON</tspan></text>
    <rect id="Rectangle_72" data-name="Rectangle 72" width="360" height="75" transform="translate(422 233)" fill="#c1c1c1"/>
    <text id="PAGE_INTO_HEADING" data-name="PAGE INTO HEADING" transform="translate(438 257)" fill="#fff" font-size="24" font-family="HelveticaNeue, Helvetica Neue"><tspan x="45.344" y="23">PAGE INTO HEADING</tspan></text>
    <rect id="Rectangle_75" data-name="Rectangle 75" width="660" height="59.283" transform="translate(115 395)" fill="#c1c1c1"/>
    <rect id="Rectangle_89" data-name="Rectangle 89" width="660" height="59.283" transform="translate(120 1377)" fill="#c1c1c1"/>
    <rect id="Rectangle_76" data-name="Rectangle 76" width="960" height="224.967" transform="translate(115 476)" fill="#c1c1c1"/>
    <rect id="Rectangle_90" data-name="Rectangle 90" width="960" height="224.967" transform="translate(120 1477)" fill="#c1c1c1"/>
    <rect id="Rectangle_87" data-name="Rectangle 87" width="460" height="260.955" transform="translate(620 792)" fill="#c1c1c1"/>
    <rect id="Rectangle_88" data-name="Rectangle 88" width="560" height="25.068" transform="translate(520 1302)" fill="#c1c1c1"/>
    <text id="TITLE" transform="translate(131 403.283)" fill="#fff" font-size="24" font-family="HelveticaNeue, Helvetica Neue"><tspan x="283.112" y="23">TITLE</tspan></text>
    <text id="TITLE-2" data-name="TITLE" transform="translate(120 1394.283)" fill="#fff" font-size="24" font-family="HelveticaNeue, Helvetica Neue"><tspan x="283.112" y="23">TITLE</tspan></text>
    <text id="TITLE-3" data-name="TITLE" transform="translate(136 1257.283)" fill="#fff" font-size="24" font-family="HelveticaNeue, Helvetica Neue"><tspan x="283.112" y="23">TITLE</tspan></text>
    <text id="COPY_TEXT" data-name="COPY TEXT" transform="translate(418.5 573.283)" fill="#fff" font-size="24" font-family="HelveticaNeue, Helvetica Neue"><tspan x="111.388" y="23">COPY TEXT</tspan></text>
    <text id="COPY_TEXT-2" data-name="COPY TEXT" transform="translate(423.5 1557.283)" fill="#fff" font-size="24" font-family="HelveticaNeue, Helvetica Neue"><tspan x="111.388" y="23">COPY TEXT</tspan></text>
    <text id="COPY_TEXT-3" data-name="COPY TEXT" transform="translate(623.5 907.303)" fill="#fff" font-size="24" font-family="HelveticaNeue, Helvetica Neue"><tspan x="161.388" y="23">COPY TEXT</tspan></text>
    <text id="COPY_TEXT-4" data-name="COPY TEXT" transform="translate(523.5 1299.192)" fill="#fff" font-size="24" font-family="HelveticaNeue, Helvetica Neue"><tspan x="211.388" y="23">COPY TEXT</tspan></text>
    <g id="Rectangle_77" data-name="Rectangle 77" transform="translate(122 792)" fill="#c1c1c1" stroke="#707070" stroke-linecap="round" stroke-linejoin="round" stroke-width="2">
      <rect width="198" height="52" stroke="none"/>
      <rect x="-1" y="-1" width="200" height="54" fill="none"/>
    </g>
    <g id="Rectangle_81" data-name="Rectangle 81" transform="translate(120 1038)" fill="#c1c1c1" stroke="#707070" stroke-linecap="round" stroke-linejoin="round" stroke-width="2">
      <rect width="198" height="52" stroke="none"/>
      <rect x="-1" y="-1" width="200" height="54" fill="none"/>
    </g>
    <g id="Rectangle_83" data-name="Rectangle 83" transform="translate(120 1120)" fill="#c1c1c1" stroke="#707070" stroke-linecap="round" stroke-linejoin="round" stroke-width="2">
      <rect width="198" height="52" stroke="none"/>
      <rect x="-1" y="-1" width="200" height="54" fill="none"/>
    </g>
    <g id="Rectangle_85" data-name="Rectangle 85" transform="translate(120 1202)" fill="#c1c1c1" stroke="#707070" stroke-linecap="round" stroke-linejoin="round" stroke-width="2">
      <rect width="198" height="52" stroke="none"/>
      <rect x="-1" y="-1" width="200" height="54" fill="none"/>
    </g>
    <g id="Rectangle_79" data-name="Rectangle 79" transform="translate(122 874)" fill="#c1c1c1" stroke="#707070" stroke-linecap="round" stroke-linejoin="round" stroke-width="2">
      <rect width="458" height="52" stroke="none"/>
      <rect x="-1" y="-1" width="460" height="54" fill="none"/>
    </g>
    <g id="Rectangle_80" data-name="Rectangle 80" transform="translate(122 956)" fill="#c1c1c1" stroke="#707070" stroke-linecap="round" stroke-linejoin="round" stroke-width="2">
      <rect width="458" height="52" stroke="none"/>
      <rect x="-1" y="-1" width="460" height="54" fill="none"/>
    </g>
    <g id="Rectangle_78" data-name="Rectangle 78" transform="translate(380 792)" fill="#c1c1c1" stroke="#707070" stroke-linecap="round" stroke-linejoin="round" stroke-width="2">
      <rect width="198" height="52" stroke="none"/>
      <rect x="-1" y="-1" width="200" height="54" fill="none"/>
    </g>
    <g id="Rectangle_82" data-name="Rectangle 82" transform="translate(378 1038)" fill="#c1c1c1" stroke="#707070" stroke-linecap="round" stroke-linejoin="round" stroke-width="2">
      <rect width="198" height="52" stroke="none"/>
      <rect x="-1" y="-1" width="200" height="54" fill="none"/>
    </g>
    <g id="Rectangle_84" data-name="Rectangle 84" transform="translate(378 1120)" fill="#c1c1c1" stroke="#707070" stroke-linecap="round" stroke-linejoin="round" stroke-width="2">
      <rect width="198" height="52" stroke="none"/>
      <rect x="-1" y="-1" width="200" height="54" fill="none"/>
    </g>
    <rect id="Rectangle_86" data-name="Rectangle 86" width="460" height="189.495" transform="translate(620 1073.674)" fill="#9f9f9f"/>
    <text id="Image-2" data-name="Image" transform="translate(801.091 1149.137)" fill="#fff" font-size="24" font-family="HelveticaNeue, Helvetica Neue"><tspan x="30.88" y="23">Image</tspan></text>
    <text id="First_Name" data-name="First Name" transform="translate(161 805)" fill="#fff" font-size="24" font-family="HelveticaNeue, Helvetica Neue"><tspan x="4.548" y="23">First Name</tspan></text>
    <text id="City" transform="translate(154 1051)" fill="#fff" font-size="24" font-family="HelveticaNeue, Helvetica Neue"><tspan x="41.892" y="23">City</tspan></text>
    <text id="Province" transform="translate(420 1051)" fill="#fff" font-size="24" font-family="HelveticaNeue, Helvetica Neue"><tspan x="16.332" y="23">Province</tspan></text>
    <text id="Country" transform="translate(154 1128)" fill="#fff" font-size="24" font-family="HelveticaNeue, Helvetica Neue"><tspan x="20.328" y="23">Country</tspan></text>
    <text id="Submit" transform="translate(154 1209)" fill="#fff" font-size="24" font-family="HelveticaNeue, Helvetica Neue"><tspan x="24.756" y="23">Submit</tspan></text>
    <text id="Postal_Code" data-name="Postal Code" transform="translate(410 1128)" fill="#fff" font-size="24" font-family="HelveticaNeue, Helvetica Neue"><tspan x="1.5" y="23">Postal Code</tspan></text>
    <text id="Address_1" data-name="Address 1" transform="translate(294 887)" fill="#fff" font-size="24" font-family="HelveticaNeue, Helvetica Neue"><tspan x="8.76" y="23">Address 1</tspan></text>
    <text id="Address_2" data-name="Address 2" transform="translate(294 963)" fill="#fff" font-size="24" font-family="HelveticaNeue, Helvetica Neue"><tspan x="8.76" y="23">Address 2</tspan></text>
    <text id="Last_Name" data-name="Last Name" transform="translate(420 805)" fill="#fff" font-size="24" font-family="HelveticaNeue, Helvetica Neue"><tspan x="4.98" y="23">Last Name</tspan></text>
  </g>
</svg>
