<?xml version="1.0" encoding="utf-8"?>
<!-- Generator: Adobe Illustrator 23.0.1, SVG Export Plug-In . SVG Version: 6.00 Build 0)  -->
<svg version="1.1" id="Layer_1" xmlns="http://www.w3.org/2000/svg" xmlns:xlink="http://www.w3.org/1999/xlink" x="0px" y="0px"
	 viewBox="0 0 1200 2656" style="enable-background:new 0 0 1200 2656;" xml:space="preserve">
<style type="text/css">
	.st0{clip-path:url(#SVGID_2_);}
	.st1{fill:#FFFFFF;}
	.st2{fill:#717171;}
	.st3{fill:#9F9F9F;}
	.st4{fill:#C1C1C1;}
	.st5{fill:none;stroke:#707070;}
</style>
<g>
	<defs>
		<rect id="SVGID_1_" x="-1220" width="1200" height="2656"/>
	</defs>
	<clipPath id="SVGID_2_">
		<use xlink:href="#SVGID_1_"  style="overflow:visible;"/>
	</clipPath>
	<g id="index.html_desktop" class="st0">
		<rect x="-1220" class="st1" width="1200" height="2656"/>
		<rect id="Rectangle_1" x="-1220" class="st2" width="1200" height="150"/>
		<ellipse id="Ellipse_1" class="st2" cx="-922" cy="124.5" rx="83.5" ry="84.5"/>
		<ellipse id="Ellipse_2" class="st3" cx="-922" cy="108" rx="68" ry="80"/>
		<rect id="Rectangle_3" x="-800" y="60" class="st4" width="760" height="65"/>
		<rect id="Rectangle_4" x="-80" y="7" class="st4" width="40" height="40"/>
		<rect id="Rectangle_5" x="-180" y="7" class="st4" width="40" height="40"/>
		<rect id="Rectangle_6" x="-280" y="7" class="st4" width="40" height="40"/>
		<rect id="Rectangle_7" x="-1200" y="15" class="st3" width="160" height="40"/>
		<rect id="Rectangle_8" x="-1200" y="340" class="st3" width="1160" height="511"/>
		<rect id="Rectangle_9" x="-1200" y="714" class="st4" width="1160" height="112"/>
		<rect id="Rectangle_10" x="-1100" y="225" class="st4" width="960" height="75"/>
		<rect id="Rectangle_11" x="-1100" y="941" class="st3" width="460" height="300"/>
		<rect id="Rectangle_12" x="-600" y="1073" class="st4" width="460" height="168"/>
		<rect id="Rectangle_13" x="-600" y="946" class="st4" width="360" height="40"/>
		<rect id="Rectangle_14" x="-600" y="1006" class="st4" width="260" height="40"/>
		<g id="Rectangle_15" transform="translate(120 1406)">
			<rect x="-1220" class="st2" width="260" height="60"/>
			<rect x="-1219.5" y="0.5" class="st5" width="259" height="59"/>
		</g>
		<g id="Rectangle_16" transform="translate(470 1406)">
			<rect x="-1220" class="st2" width="260" height="60"/>
			<rect x="-1219.5" y="0.5" class="st5" width="259" height="59"/>
		</g>
		<g id="Rectangle_17" transform="translate(820 1406)">
			<rect x="-1220" class="st2" width="260" height="60"/>
			<rect x="-1219.5" y="0.5" class="st5" width="259" height="59"/>
		</g>
		<rect id="Rectangle_18" x="-900" y="1287" class="st4" width="560" height="60"/>
		<rect id="Rectangle_22" x="-900" y="1541" class="st4" width="560" height="60"/>
		<rect id="Rectangle_19" x="-1081" y="1425" class="st4" width="217" height="26"/>
		<rect id="Rectangle_20" x="-728.5" y="1425" class="st4" width="217" height="26"/>
		<rect id="Rectangle_21" x="-378.5" y="1425" class="st4" width="217" height="26"/>
		<rect id="Rectangle_23" x="-1100" y="1667" class="st3" width="400" height="186"/>
		<rect id="Rectangle_26" x="-540" y="1667" class="st3" width="400" height="186"/>
		<g id="Rectangle_24" transform="translate(120 1873)">
			<rect x="-1220" class="st4" width="260" height="30"/>
			<rect x="-1219.5" y="0.5" class="st5" width="259" height="29"/>
		</g>
		<g id="Rectangle_27" transform="translate(680 1873)">
			<rect x="-1220" class="st4" width="260" height="30"/>
			<rect x="-1219.5" y="0.5" class="st5" width="259" height="29"/>
		</g>
		<g id="Rectangle_25" transform="translate(120 1923)">
			<rect x="-1220" class="st4" width="400" height="360"/>
			<rect x="-1219.5" y="0.5" class="st5" width="399" height="359"/>
		</g>
		<g id="Rectangle_28" transform="translate(680 1923)">
			<rect x="-1220" class="st4" width="400" height="360"/>
			<rect x="-1219.5" y="0.5" class="st5" width="399" height="359"/>
		</g>
		<rect id="Rectangle_29" x="-1220" y="2359" class="st2" width="1200" height="300"/>
		<g id="Rectangle_30" transform="translate(120 2387)">
			<rect x="-1220" class="st4" width="960" height="64"/>
			<rect x="-1219.5" y="0.5" class="st5" width="959" height="63"/>
		</g>
		<g id="Rectangle_34" transform="translate(220 2561)">
			<rect x="-1220" class="st4" width="760" height="40"/>
			<rect x="-1219.5" y="0.5" class="st5" width="759" height="39"/>
		</g>
		<g id="Rectangle_31" transform="translate(480 2478)">
			<rect x="-1220" class="st3" width="40" height="40"/>
			<rect x="-1219.5" y="0.5" class="st5" width="39" height="39"/>
		</g>
		<g id="Rectangle_32" transform="translate(580 2478)">
			<rect x="-1220" class="st3" width="40" height="40"/>
			<rect x="-1219.5" y="0.5" class="st5" width="39" height="39"/>
		</g>
		<g id="Rectangle_33" transform="translate(680 2478)">
			<rect x="-1220" class="st3" width="40" height="40"/>
			<rect x="-1219.5" y="0.5" class="st5" width="39" height="39"/>
		</g>
		<text transform="matrix(1 0 0 1 -958.52 116)" class="st1" style="font-family:'HelveticaNeue'; font-size:24px;">LOGO</text>
		<text transform="matrix(1 0 0 1 -1157.0601 46)" class="st1" style="font-family:'HelveticaNeue'; font-size:24px;">Search</text>
		<text transform="matrix(1 0 0 1 -442.72 100)" class="st1" style="font-family:'HelveticaNeue'; font-size:24px;">NAV</text>
		<text transform="matrix(1 0 0 1 -276.741 31)" class="st1" style="font-family:'HelveticaNeue'; font-size:14px;">ICON</text>
		<text transform="matrix(1 0 0 1 -176.741 33)" class="st1" style="font-family:'HelveticaNeue'; font-size:14px;">ICON</text>
		<text transform="matrix(1 0 0 1 -76.741 33)" class="st1" style="font-family:'HelveticaNeue'; font-size:14px;">ICON</text>
		<text transform="matrix(1 0 0 1 -730.876 265)" class="st1" style="font-family:'HelveticaNeue'; font-size:24px;">PAGE INTRO HEADING</text>
		<text transform="matrix(1 0 0 1 -693.784 548)" class="st1" style="font-family:'HelveticaNeue'; font-size:24px;">HERO GALLERY</text>
		<text transform="matrix(1 0 0 1 -669.112 782)" class="st1" style="font-family:'HelveticaNeue'; font-size:24px;">COPY TEXT</text>
		<text transform="matrix(1 0 0 1 -429.112 1169)" class="st1" style="font-family:'HelveticaNeue'; font-size:24px;">COPY TEXT</text>
		<text transform="matrix(1 0 0 1 -969.112 2105)" class="st1" style="font-family:'HelveticaNeue'; font-size:24px;">COPY TEXT</text>
		<text transform="matrix(1 0 0 1 -679.328 2426)" class="st1" style="font-family:'HelveticaNeue'; font-size:24px;">Footer Nav</text>
		<text transform="matrix(1 0 0 1 -689.324 2589)" class="st1" style="font-family:'HelveticaNeue'; font-size:24px;">COPYRIGHT</text>
		<text transform="matrix(1 0 0 1 -401.112 2105)" class="st1" style="font-family:'HelveticaNeue'; font-size:24px;">COPY TEXT</text>
		<text transform="matrix(1 0 0 1 -1071.58 1447)" class="st1" style="font-family:'HelveticaNeue'; font-size:24px;">Sub heading (link)</text>
		<text transform="matrix(1 0 0 1 -1057.8 1894)" class="st1" style="font-family:'HelveticaNeue'; font-size:24px;">Sub heading</text>
		<text transform="matrix(1 0 0 1 -503.8 1892)" class="st1" style="font-family:'HelveticaNeue'; font-size:24px;">Sub heading</text>
		<text transform="matrix(1 0 0 1 -709.58 1447)" class="st1" style="font-family:'HelveticaNeue'; font-size:24px;">Sub heading (link)</text>
		<text transform="matrix(1 0 0 1 -642.44 1321)" class="st1" style="font-family:'HelveticaNeue'; font-size:24px;">Title</text>
		<text transform="matrix(1 0 0 1 -642.44 1582)" class="st1" style="font-family:'HelveticaNeue'; font-size:24px;">Title</text>
		<text transform="matrix(1 0 0 1 -359.58 1447)" class="st1" style="font-family:'HelveticaNeue'; font-size:24px;">Sub heading (link)</text>
		<text transform="matrix(1 0 0 1 -897.12 1096)" class="st1" style="font-family:'HelveticaNeue'; font-size:24px;">Image</text>
		<text transform="matrix(1 0 0 1 -937.12 1762)" class="st1" style="font-family:'HelveticaNeue'; font-size:24px;">Image</text>
		<text transform="matrix(1 0 0 1 -369.12 1769)" class="st1" style="font-family:'HelveticaNeue'; font-size:24px;">Image</text>
		<text transform="matrix(1 0 0 1 -523.332 971)" class="st1" style="font-family:'HelveticaNeue'; font-size:24px;">title</text>
		<text transform="matrix(1 0 0 1 -571.8 1029)" class="st1" style="font-family:'HelveticaNeue'; font-size:24px;">Sub heading</text>
		<text transform="matrix(1 0 0 1 -637.241 2506)" class="st1" style="font-family:'HelveticaNeue'; font-size:14px;">ICON</text>
		<text transform="matrix(1 0 0 1 -737.241 2506)" class="st1" style="font-family:'HelveticaNeue'; font-size:14px;">ICON</text>
		<text transform="matrix(1 0 0 1 -537.241 2506)" class="st1" style="font-family:'HelveticaNeue'; font-size:14px;">ICON</text>
	</g>
</g>
</svg>
