<svg xmlns="http://www.w3.org/2000/svg" xmlns:xlink="http://www.w3.org/1999/xlink" width="1200" height="1939" viewBox="0 0 1200 1939">
  <defs>
    <clipPath id="clip-links.html_desktop">
      <rect width="1200" height="1939"/>
    </clipPath>
  </defs>
  <g id="links.html_desktop" data-name="links.html desktop" clip-path="url(#clip-links.html_desktop)">
    <rect width="1200" height="1939" fill="#fff"/>
    <rect id="Rectangle_8" data-name="Rectangle 8" width="1200" height="339" fill="#9f9f9f"/>
    <rect id="Rectangle_1" data-name="Rectangle 1" width="1200" height="150" fill="#717171"/>
    <ellipse id="Ellipse_1" data-name="Ellipse 1" cx="83.5" cy="84.5" rx="83.5" ry="84.5" transform="translate(214.5 40)" fill="#717171"/>
    <ellipse id="Ellipse_2" data-name="Ellipse 2" cx="68" cy="80" rx="68" ry="80" transform="translate(230 28)" fill="#9f9f9f"/>
    <rect id="Rectangle_3" data-name="Rectangle 3" width="760" height="65" transform="translate(420 60)" fill="#c1c1c1"/>
    <rect id="Rectangle_4" data-name="Rectangle 4" width="40" height="40" transform="translate(1140 7)" fill="#c1c1c1"/>
    <rect id="Rectangle_5" data-name="Rectangle 5" width="40" height="40" transform="translate(1040 7)" fill="#c1c1c1"/>
    <rect id="Rectangle_6" data-name="Rectangle 6" width="40" height="40" transform="translate(940 7)" fill="#c1c1c1"/>
    <rect id="Rectangle_7" data-name="Rectangle 7" width="160" height="40" transform="translate(20 15)" fill="#c1c1c1"/>
    <rect id="Rectangle_10" data-name="Rectangle 10" width="360" height="75" transform="translate(420 1316)" fill="#c1c1c1"/>
    <rect id="Rectangle_71" data-name="Rectangle 71" width="960" height="147.669" transform="translate(120 1406)" fill="#c1c1c1"/>
    <text id="LOGO" transform="translate(255 93)" fill="#fff" font-size="24" font-family="HelveticaNeue, Helvetica Neue"><tspan x="6.48" y="23">LOGO</tspan></text>
    <text id="Image" transform="translate(559.5 177)" fill="#fff" font-size="24" font-family="HelveticaNeue, Helvetica Neue"><tspan x="7.38" y="23">Image</tspan></text>
    <text id="Search" transform="translate(60 23)" fill="#fff" font-size="24" font-family="HelveticaNeue, Helvetica Neue"><tspan x="2.94" y="23">Search</tspan></text>
    <text id="NAV" transform="translate(760 77)" fill="#fff" font-size="24" font-family="HelveticaNeue, Helvetica Neue"><tspan x="17.28" y="23">NAV</tspan></text>
    <text id="ICON" transform="translate(920 18)" fill="#fff" font-size="14" font-family="HelveticaNeue, Helvetica Neue"><tspan x="23.259" y="13">ICON</tspan></text>
    <text id="ICON-2" data-name="ICON" transform="translate(1020 20)" fill="#fff" font-size="14" font-family="HelveticaNeue, Helvetica Neue"><tspan x="23.259" y="13">ICON</tspan></text>
    <text id="ICON-3" data-name="ICON" transform="translate(1120 20)" fill="#fff" font-size="14" font-family="HelveticaNeue, Helvetica Neue"><tspan x="23.259" y="13">ICON</tspan></text>
    <text id="PLEASE_NOTE" data-name="PLEASE NOTE" transform="translate(436 1340)" fill="#fff" font-size="24" font-family="HelveticaNeue, Helvetica Neue"><tspan x="83.996" y="23">PLEASE NOTE</tspan></text>
    <text id="COPY_TEXT" data-name="COPY TEXT" transform="translate(136 1463.5)" fill="#fff" font-size="24" font-family="HelveticaNeue, Helvetica Neue"><tspan x="398.888" y="23">COPY TEXT</tspan></text>
    <text id="PAGE_INTO_HEADING" data-name="PAGE INTO HEADING" transform="translate(352 808)" fill="#fff" font-size="24" font-family="HelveticaNeue, Helvetica Neue"><tspan x="45.344" y="23">PAGE INTO HEADING</tspan></text>
    <rect id="Rectangle_29" data-name="Rectangle 29" width="1200" height="300" transform="translate(0 1639)" fill="#717171"/>
    <g id="Rectangle_30" data-name="Rectangle 30" transform="translate(120 1667)" fill="#c1c1c1" stroke="#707070" stroke-width="1">
      <rect width="960" height="64" stroke="none"/>
      <rect x="0.5" y="0.5" width="959" height="63" fill="none"/>
    </g>
    <g id="Rectangle_34" data-name="Rectangle 34" transform="translate(220 1841)" fill="#c1c1c1" stroke="#707070" stroke-width="1">
      <rect width="760" height="40" stroke="none"/>
      <rect x="0.5" y="0.5" width="759" height="39" fill="none"/>
    </g>
    <g id="Rectangle_31" data-name="Rectangle 31" transform="translate(480 1758)" fill="#9f9f9f" stroke="#707070" stroke-width="1">
      <rect width="40" height="40" stroke="none"/>
      <rect x="0.5" y="0.5" width="39" height="39" fill="none"/>
    </g>
    <g id="Rectangle_32" data-name="Rectangle 32" transform="translate(580 1758)" fill="#9f9f9f" stroke="#707070" stroke-width="1">
      <rect width="40" height="40" stroke="none"/>
      <rect x="0.5" y="0.5" width="39" height="39" fill="none"/>
    </g>
    <g id="Rectangle_33" data-name="Rectangle 33" transform="translate(680 1758)" fill="#9f9f9f" stroke="#707070" stroke-width="1">
      <rect width="40" height="40" stroke="none"/>
      <rect x="0.5" y="0.5" width="39" height="39" fill="none"/>
    </g>
    <text id="Footer_Nav" data-name="Footer Nav" transform="translate(436 1683)" fill="#fff" font-size="24" font-family="HelveticaNeue, Helvetica Neue"><tspan x="104.672" y="23">Footer Nav</tspan></text>
    <text id="COPYRIGHT" transform="translate(436 1846)" fill="#fff" font-size="24" font-family="HelveticaNeue, Helvetica Neue"><tspan x="94.676" y="23">COPYRIGHT</tspan></text>
    <text id="ICON-4" data-name="ICON" transform="translate(559.5 1773)" fill="#fff" font-size="14" font-family="HelveticaNeue, Helvetica Neue"><tspan x="23.259" y="13">ICON</tspan></text>
    <text id="ICON-5" data-name="ICON" transform="translate(459.5 1773)" fill="#fff" font-size="14" font-family="HelveticaNeue, Helvetica Neue"><tspan x="23.259" y="13">ICON</tspan></text>
    <text id="ICON-6" data-name="ICON" transform="translate(659.5 1773)" fill="#fff" font-size="14" font-family="HelveticaNeue, Helvetica Neue"><tspan x="23.259" y="13">ICON</tspan></text>
    <rect id="Rectangle_68" data-name="Rectangle 68" width="760" height="792" transform="translate(320 412)" fill="#717171"/>
    <rect id="Rectangle_69" data-name="Rectangle 69" width="360" height="628.672" transform="translate(420 494)" fill="#c1c1c1"/>
    <text id="List_of_links" data-name="List of links" transform="translate(436 766.672)" fill="#fff" font-size="24" font-family="HelveticaNeue, Helvetica Neue"><tspan x="103.544" y="23">List of links</tspan></text>
    <rect id="Rectangle_70" data-name="Rectangle 70" width="200" height="792" transform="translate(120 412)" fill="#989898"/>
    <text id="LINKS_MENU" data-name="LINKS MENU" transform="translate(52 742.672)" fill="#fff" font-size="24" font-family="HelveticaNeue, Helvetica Neue"><tspan x="91.328" y="23">LINKS MENU</tspan></text>
    <rect id="Rectangle_72" data-name="Rectangle 72" width="360" height="75" transform="translate(422 233)" fill="#c1c1c1"/>
    <text id="PAGE_INTO_HEADING-2" data-name="PAGE INTO HEADING" transform="translate(438 257)" fill="#fff" font-size="24" font-family="HelveticaNeue, Helvetica Neue"><tspan x="45.344" y="23">PAGE INTO HEADING</tspan></text>
  </g>
</svg>
