<svg xmlns="http://www.w3.org/2000/svg" xmlns:xlink="http://www.w3.org/1999/xlink" width="1200" height="1737" viewBox="0 0 1200 1737">
  <defs>
    <clipPath id="clip-newsletters.html_desktop">
      <rect width="1200" height="1737"/>
    </clipPath>
  </defs>
  <g id="newsletters.html_desktop" data-name="newsletters.html desktop" clip-path="url(#clip-newsletters.html_desktop)">
    <rect width="1200" height="1737" fill="#fff"/>
    <rect id="Rectangle_8" data-name="Rectangle 8" width="1200" height="339" fill="#9f9f9f"/>
    <rect id="Rectangle_1" data-name="Rectangle 1" width="1200" height="150" fill="#717171"/>
    <ellipse id="Ellipse_1" data-name="Ellipse 1" cx="83.5" cy="84.5" rx="83.5" ry="84.5" transform="translate(214.5 40)" fill="#717171"/>
    <ellipse id="Ellipse_2" data-name="Ellipse 2" cx="68" cy="80" rx="68" ry="80" transform="translate(230 28)" fill="#9f9f9f"/>
    <rect id="Rectangle_3" data-name="Rectangle 3" width="760" height="65" transform="translate(420 60)" fill="#c1c1c1"/>
    <rect id="Rectangle_4" data-name="Rectangle 4" width="40" height="40" transform="translate(1140 7)" fill="#c1c1c1"/>
    <rect id="Rectangle_5" data-name="Rectangle 5" width="40" height="40" transform="translate(1040 7)" fill="#c1c1c1"/>
    <rect id="Rectangle_6" data-name="Rectangle 6" width="40" height="40" transform="translate(940 7)" fill="#c1c1c1"/>
    <rect id="Rectangle_7" data-name="Rectangle 7" width="160" height="40" transform="translate(20 15)" fill="#c1c1c1"/>
    <rect id="Rectangle_10" data-name="Rectangle 10" width="360" height="75" transform="translate(420 225)" fill="#c1c1c1"/>
    <text id="LOGO" transform="translate(255 93)" fill="#fff" font-size="24" font-family="HelveticaNeue, Helvetica Neue"><tspan x="6.48" y="23">LOGO</tspan></text>
    <text id="Image" transform="translate(559.5 177)" fill="#fff" font-size="24" font-family="HelveticaNeue, Helvetica Neue"><tspan x="7.38" y="23">Image</tspan></text>
    <text id="Search" transform="translate(60 23)" fill="#fff" font-size="24" font-family="HelveticaNeue, Helvetica Neue"><tspan x="2.94" y="23">Search</tspan></text>
    <text id="NAV" transform="translate(760 77)" fill="#fff" font-size="24" font-family="HelveticaNeue, Helvetica Neue"><tspan x="17.28" y="23">NAV</tspan></text>
    <text id="ICON" transform="translate(920 18)" fill="#fff" font-size="14" font-family="HelveticaNeue, Helvetica Neue"><tspan x="23.259" y="13">ICON</tspan></text>
    <text id="ICON-2" data-name="ICON" transform="translate(1020 20)" fill="#fff" font-size="14" font-family="HelveticaNeue, Helvetica Neue"><tspan x="23.259" y="13">ICON</tspan></text>
    <text id="ICON-3" data-name="ICON" transform="translate(1120 20)" fill="#fff" font-size="14" font-family="HelveticaNeue, Helvetica Neue"><tspan x="23.259" y="13">ICON</tspan></text>
    <text id="PAGE_INTO_HEADING" data-name="PAGE INTO HEADING" transform="translate(436 249)" fill="#fff" font-size="24" font-family="HelveticaNeue, Helvetica Neue"><tspan x="45.344" y="23">PAGE INTO HEADING</tspan></text>
    <rect id="Rectangle_35" data-name="Rectangle 35" width="660" height="59.283" transform="translate(120 387)" fill="#c1c1c1"/>
    <rect id="Rectangle_37" data-name="Rectangle 37" width="560" height="59.283" transform="translate(320 762)" fill="#c1c1c1"/>
    <rect id="Rectangle_36" data-name="Rectangle 36" width="960" height="224.967" transform="translate(120 468)" fill="#c1c1c1"/>
    <rect id="Rectangle_11" data-name="Rectangle 11" width="460" height="487.052" transform="translate(120 856)" fill="#9f9f9f"/>
    <rect id="Rectangle_73" data-name="Rectangle 73" width="460" height="487.052" transform="translate(620 856)" fill="#9f9f9f"/>
    <rect id="Rectangle_38" data-name="Rectangle 38" width="460" height="353" transform="translate(120 990)" fill="#c1c1c1"/>
    <rect id="Rectangle_74" data-name="Rectangle 74" width="460" height="353" transform="translate(620 990)" fill="#c1c1c1"/>
    <rect id="Rectangle_29" data-name="Rectangle 29" width="1200" height="300" transform="translate(0 1439)" fill="#717171"/>
    <g id="Rectangle_30" data-name="Rectangle 30" transform="translate(120 1467)" fill="#c1c1c1" stroke="#707070" stroke-width="1">
      <rect width="960" height="64" stroke="none"/>
      <rect x="0.5" y="0.5" width="959" height="63" fill="none"/>
    </g>
    <g id="Rectangle_34" data-name="Rectangle 34" transform="translate(220 1641)" fill="#c1c1c1" stroke="#707070" stroke-width="1">
      <rect width="760" height="40" stroke="none"/>
      <rect x="0.5" y="0.5" width="759" height="39" fill="none"/>
    </g>
    <g id="Rectangle_31" data-name="Rectangle 31" transform="translate(480 1558)" fill="#9f9f9f" stroke="#707070" stroke-width="1">
      <rect width="40" height="40" stroke="none"/>
      <rect x="0.5" y="0.5" width="39" height="39" fill="none"/>
    </g>
    <g id="Rectangle_32" data-name="Rectangle 32" transform="translate(580 1558)" fill="#9f9f9f" stroke="#707070" stroke-width="1">
      <rect width="40" height="40" stroke="none"/>
      <rect x="0.5" y="0.5" width="39" height="39" fill="none"/>
    </g>
    <g id="Rectangle_33" data-name="Rectangle 33" transform="translate(680 1558)" fill="#9f9f9f" stroke="#707070" stroke-width="1">
      <rect width="40" height="40" stroke="none"/>
      <rect x="0.5" y="0.5" width="39" height="39" fill="none"/>
    </g>
    <text id="TITLE" transform="translate(136 395.283)" fill="#fff" font-size="24" font-family="HelveticaNeue, Helvetica Neue"><tspan x="283.112" y="23">TITLE</tspan></text>
    <text id="TITLE-2" data-name="TITLE" transform="translate(336 770.283)" fill="#fff" font-size="24" font-family="HelveticaNeue, Helvetica Neue"><tspan x="233.112" y="23">TITLE</tspan></text>
    <text id="TITLE-3" data-name="TITLE" transform="translate(80 1001.283)" fill="#fff" font-size="24" font-family="HelveticaNeue, Helvetica Neue"><tspan x="233.112" y="23">TITLE</tspan></text>
    <text id="TITLE-4" data-name="TITLE" transform="translate(580 1001.283)" fill="#fff" font-size="24" font-family="HelveticaNeue, Helvetica Neue"><tspan x="233.112" y="23">TITLE</tspan></text>
    <text id="COPY_TEXT" data-name="COPY TEXT" transform="translate(423.5 565.283)" fill="#fff" font-size="24" font-family="HelveticaNeue, Helvetica Neue"><tspan x="111.388" y="23">COPY TEXT</tspan></text>
    <text id="List_of_newsletters" data-name="List of newsletters" transform="translate(180 1126.283)" fill="#fff" font-size="24" font-family="HelveticaNeue, Helvetica Neue"><tspan x="78.952" y="23">List of newsletters</tspan></text>
    <text id="List_of_newsletters-2" data-name="List of newsletters" transform="translate(680 1126.283)" fill="#fff" font-size="24" font-family="HelveticaNeue, Helvetica Neue"><tspan x="78.952" y="23">List of newsletters</tspan></text>
    <text id="Footer_Nav" data-name="Footer Nav" transform="translate(436 1483)" fill="#fff" font-size="24" font-family="HelveticaNeue, Helvetica Neue"><tspan x="104.672" y="23">Footer Nav</tspan></text>
    <text id="COPYRIGHT" transform="translate(436 1646)" fill="#fff" font-size="24" font-family="HelveticaNeue, Helvetica Neue"><tspan x="94.676" y="23">COPYRIGHT</tspan></text>
    <text id="Image-2" data-name="Image" transform="translate(280 890.701)" fill="#fff" font-size="24" font-family="HelveticaNeue, Helvetica Neue"><tspan x="30.88" y="23">Image</tspan></text>
    <text id="Image-3" data-name="Image" transform="translate(780 890.701)" fill="#fff" font-size="24" font-family="HelveticaNeue, Helvetica Neue"><tspan x="30.88" y="23">Image</tspan></text>
    <text id="ICON-4" data-name="ICON" transform="translate(559.5 1573)" fill="#fff" font-size="14" font-family="HelveticaNeue, Helvetica Neue"><tspan x="23.259" y="13">ICON</tspan></text>
    <text id="ICON-5" data-name="ICON" transform="translate(459.5 1573)" fill="#fff" font-size="14" font-family="HelveticaNeue, Helvetica Neue"><tspan x="23.259" y="13">ICON</tspan></text>
    <text id="ICON-6" data-name="ICON" transform="translate(659.5 1573)" fill="#fff" font-size="14" font-family="HelveticaNeue, Helvetica Neue"><tspan x="23.259" y="13">ICON</tspan></text>
  </g>
</svg>
